<svg version="1.1" viewBox="0 0 25 29" xmlns="http://www.w3.org/2000/svg">
	<g fill="none" fill-rule="evenodd">
		<g fill="#fff" fill-rule="nonzero">
			<path id="Path" d="m19.631 0h-17.617c-0.99122 0-1.7976 0.80833-1.7976 1.8019v12.861c0 0.33173 0.26833 0.60063 0.59921 0.60063 0.33089 0 0.59921-0.2689 0.59921-0.60063v-4.0733-8.7873c0-0.33119 0.26881-0.60063 0.59921-0.60063h17.617c0.33041 0 0.59921 0.26944 0.59921 0.60063v22.344c0 0.33119-0.26881 0.60063-0.59921 0.60063h-17.617c-0.33041 0-0.59921-0.26944-0.59921-0.60063v-11.152c0-0.33173-0.26833-0.60063-0.59921-0.60063-0.33089 0-0.59921 0.2689-0.59921 0.60063v11.152c0 0.99357 0.80642 1.8019 1.7976 1.8019h17.617c0.99122 0 1.7976-0.80833 1.7976-1.8019v-22.344c0-0.99357-0.80642-1.8019-1.7976-1.8019z"/>
			<path id="Path" d="m23.856 3.0526c-0.33307 0-0.60317 0.2689-0.60317 0.60063v23.545c0 0.33119-0.27058 0.60063-0.60317 0.60063h-16.527c-0.33307 0-0.60317 0.2689-0.60317 0.60063s0.2701 0.60063 0.60317 0.60063h16.527c0.99776 0 1.8095-0.80833 1.8095-1.8019v-23.545c0-0.33173-0.2701-0.60063-0.60317-0.60063z"/>
			<path d="m9.4772 4.5789h-5.6426c-0.32457 0-0.58777 0.26509-0.58777 0.59211v5.6842c0 0.32702 0.26321 0.59211 0.58777 0.59211h5.6426c0.32457 0 0.58777-0.26509 0.58777-0.59211v-5.6842c0-0.32702-0.26321-0.59211-0.58777-0.59211zm-0.58777 5.6842h-4.4671v-4.5h4.4671v4.5z"/>
			<path id="Path" d="m7.6101 14.667c-0.24293-0.22212-0.63661-0.22218-0.87959 0l-1.6533 1.5125-0.7687-0.70328c-0.24286-0.22218-0.63654-0.22212-0.87959 0-0.24286 0.22218-0.24286 0.58244 0 0.80462l1.2085 1.1056c0.11667 0.10668 0.27483 0.16665 0.43977 0.16665 0.165 0 0.32309-0.059968 0.43983-0.16665l2.093-1.9148c0.24286-0.22218 0.24286-0.58244 0-0.80462z"/>
			<path id="Path" d="m17.789 15.263h-7.1138c-0.33671 0-0.60975 0.34167-0.60975 0.76316s0.27305 0.76316 0.60975 0.76316h7.1138c0.33671 0 0.60975-0.34167 0.60975-0.76316s-0.27305-0.76316-0.60975-0.76316z"/>
			<path id="Path" d="m17.051 4.5789h-4.1246c-0.32537 0-0.58923 0.34167-0.58923 0.76316 0 0.42149 0.26386 0.76316 0.58923 0.76316h4.1246c0.32537 0 0.58923-0.34167 0.58923-0.76316 0-0.42149-0.26386-0.76316-0.58923-0.76316z"/>
			<path id="Path" d="m17.051 6.8684h-4.1246c-0.32537 0-0.58923 0.34167-0.58923 0.76316 0 0.42149 0.26386 0.76316 0.58923 0.76316h4.1246c0.32537 0 0.58923-0.34167 0.58923-0.76316 0-0.42149-0.26386-0.76316-0.58923-0.76316z"/>
			<path id="Path" d="m17.051 9.9211h-4.1246c-0.32537 0-0.58923 0.34167-0.58923 0.76316s0.26386 0.76316 0.58923 0.76316h4.1246c0.32537 0 0.58923-0.34167 0.58923-0.76316s-0.26386-0.76316-0.58923-0.76316z"/>
			<path id="a" d="m7.6101 19.246c-0.24293-0.22212-0.63661-0.22218-0.87959 0l-1.6533 1.5125-0.7687-0.70328c-0.24286-0.22218-0.63654-0.22212-0.87959 0-0.24286 0.22218-0.24286 0.58244 0 0.80462l1.2085 1.1056c0.11667 0.10668 0.27483 0.16665 0.43977 0.16665 0.165 0 0.32309-0.059968 0.43983-0.16665l2.093-1.9148c0.24286-0.22218 0.24286-0.58244 0-0.80462z"/>
			<path d="m17.789 19.842h-7.1138c-0.33671 0-0.60975 0.34167-0.60975 0.76316s0.27305 0.76316 0.60975 0.76316h7.1138c0.33671 0 0.60975-0.34167 0.60975-0.76316s-0.27305-0.76316-0.60975-0.76316z"/>
		</g>
	</g>
</svg>
