<svg xmlns="http://www.w3.org/2000/svg" width="231" height="48" viewBox="0 0 231 48">
  <g fill="none" fill-rule="evenodd">
    <circle cx="24" cy="24" r="24" fill="#AED036"/>
    <path fill="#212323" fill-rule="nonzero" d="M73.4421875,31.546875 L63.0984375,31.546875 L63.0984375,12.453125 L59.0671875,12.453125 L59.0671875,35 L73.4421875,35 L73.4421875,31.546875 Z M83.3334375,35.34375 C88.4428125,35.34375 91.5521875,32 91.5521875,26.453125 C91.5521875,20.9375 88.4271875,17.59375 83.3334375,17.59375 C78.2553125,17.59375 75.1146875,20.953125 75.1146875,26.453125 C75.1146875,32 78.2084375,35.34375 83.3334375,35.34375 Z M83.3334375,32.171875 C80.6303125,32.171875 79.0834375,30.078125 79.0834375,26.46875 C79.0834375,22.859375 80.6303125,20.765625 83.3334375,20.765625 C86.0209375,20.765625 87.5678125,22.859375 87.5678125,26.46875 C87.5678125,30.078125 86.0365625,32.171875 83.3334375,32.171875 Z M102.162187,41.5 C107.146562,41.5 110.302812,39.015625 110.302812,35.09375 L110.302812,17.921875 L106.568437,17.921875 L106.568437,20.65625 L106.302812,20.65625 C105.365312,18.796875 103.334062,17.640625 101.005937,17.640625 C96.6465625,17.640625 93.9434375,21.046875 93.9434375,26.28125 C93.9434375,31.40625 96.6309375,34.75 100.943437,34.75 C103.318437,34.75 105.177812,33.75 106.162187,31.90625 L106.427812,31.90625 L106.427812,35.15625 C106.427812,37.328125 104.880937,38.609375 102.224687,38.609375 C100.099687,38.609375 98.7246875,37.84375 98.4746875,36.640625 L94.5840625,36.640625 C94.8965625,39.578125 97.7715625,41.5 102.162187,41.5 Z M102.162187,31.671875 C99.4590625,31.671875 97.9278125,29.578125 97.9278125,26.265625 C97.9278125,22.96875 99.4590625,20.875 102.162187,20.875 C104.849687,20.875 106.490312,22.96875 106.490312,26.28125 C106.490312,29.578125 104.865312,31.671875 102.162187,31.671875 Z M121.787812,35.34375 C126.897187,35.34375 130.006562,32 130.006562,26.453125 C130.006562,20.9375 126.881562,17.59375 121.787812,17.59375 C116.709687,17.59375 113.569062,20.953125 113.569062,26.453125 C113.569062,32 116.662812,35.34375 121.787812,35.34375 Z M121.787812,32.171875 C119.084687,32.171875 117.537812,30.078125 117.537812,26.46875 C117.537812,22.859375 119.084687,20.765625 121.787812,20.765625 C124.475312,20.765625 126.022187,22.859375 126.022187,26.46875 C126.022187,30.078125 124.490937,32.171875 121.787812,32.171875 Z M145.601562,35 L145.601562,12.453125 L141.570312,12.453125 L141.570312,35 L145.601562,35 Z M150.117812,35 L153.992812,35 L153.992812,24.609375 C153.992812,22.484375 155.414687,20.875 157.336562,20.875 C159.242812,20.875 160.430312,22.03125 160.430312,23.921875 L160.430312,35 L164.195937,35 L164.195937,24.328125 C164.195937,22.375 165.524062,20.875 167.539687,20.875 C169.617812,20.875 170.664687,21.984375 170.664687,24.203125 L170.664687,35 L174.524062,35 L174.524062,23.25 C174.524062,19.703125 172.461562,17.59375 169.039687,17.59375 C166.664687,17.59375 164.695937,18.8125 163.852187,20.671875 L163.586562,20.671875 C162.867812,18.78125 161.227187,17.59375 158.867812,17.59375 C156.602187,17.59375 154.852187,18.75 154.117812,20.671875 L153.852187,20.671875 L153.852187,17.921875 L150.117812,17.921875 L150.117812,35 Z M183.180937,35.28125 C185.415312,35.28125 187.290312,34.3125 188.243437,32.65625 L188.509062,32.65625 L188.509062,35 L192.243437,35 L192.243437,23.328125 C192.243437,19.71875 189.774687,17.59375 185.384062,17.59375 C181.321562,17.59375 178.493437,19.5 178.180937,22.484375 L181.837187,22.484375 C182.196562,21.3125 183.415312,20.671875 185.196562,20.671875 C187.290312,20.671875 188.415312,21.625 188.415312,23.328125 L188.415312,24.796875 L184.009062,25.0625 C179.852812,25.296875 177.524687,27.09375 177.524687,30.15625 C177.524687,33.28125 179.884062,35.28125 183.180937,35.28125 Z M184.321562,32.296875 C182.602812,32.296875 181.368437,31.4375 181.368437,29.96875 C181.368437,28.546875 182.384062,27.75 184.555937,27.609375 L188.415312,27.34375 L188.415312,28.734375 C188.415312,30.765625 186.665312,32.296875 184.321562,32.296875 Z M203.603437,41.5 C208.587812,41.5 211.744062,39.015625 211.744062,35.09375 L211.744062,17.921875 L208.009687,17.921875 L208.009687,20.65625 L207.744062,20.65625 C206.806562,18.796875 204.775312,17.640625 202.447187,17.640625 C198.087812,17.640625 195.384687,21.046875 195.384687,26.28125 C195.384687,31.40625 198.072187,34.75 202.384687,34.75 C204.759687,34.75 206.619062,33.75 207.603437,31.90625 L207.869062,31.90625 L207.869062,35.15625 C207.869062,37.328125 206.322187,38.609375 203.665937,38.609375 C201.540937,38.609375 200.165937,37.84375 199.915937,36.640625 L196.025312,36.640625 C196.337812,39.578125 199.212812,41.5 203.603437,41.5 Z M203.603437,31.671875 C200.900312,31.671875 199.369062,29.578125 199.369062,26.265625 C199.369062,22.96875 200.900312,20.875 203.603437,20.875 C206.290937,20.875 207.931562,22.96875 207.931562,26.28125 C207.931562,29.578125 206.306562,31.671875 203.603437,31.671875 Z M226.994687,30.328125 C226.432187,31.609375 225.104062,32.328125 223.182187,32.328125 C220.635312,32.328125 218.994687,30.515625 218.900937,27.625 L218.900937,27.421875 L230.838437,27.421875 L230.838437,26.1875 C230.838437,20.828125 227.916562,17.59375 223.041562,17.59375 C218.088437,17.59375 215.010312,21.046875 215.010312,26.53125 C215.010312,32 218.041562,35.34375 223.072812,35.34375 C227.104062,35.34375 229.963437,33.40625 230.666562,30.328125 L226.994687,30.328125 Z M223.025937,20.609375 C225.354062,20.609375 226.885312,22.25 226.963437,24.84375 L218.916562,24.84375 C219.088437,22.28125 220.713437,20.609375 223.025937,20.609375 Z"/>
  </g>
</svg>
